<svg xmlns="http://www.w3.org/2000/svg"  viewBox="0 0 48 48" width="48px" height="48px"><path fill="#827717" d="M26,43h-4c0-2-1-4-1-4h6C27,39,26,41,26,43z"/><path fill="#d1d1d1" d="M24 5A12 12 0 1 0 24 29A12 12 0 1 0 24 5Z"/><path fill="#e0e0e0" d="M11.5 16A9.5 9.5 0 1 0 11.5 35 9.5 9.5 0 1 0 11.5 16zM36.5 16A9.5 9.5 0 1 0 36.5 35 9.5 9.5 0 1 0 36.5 16z"/><path fill="#eee" d="M24 14A12 12 0 1 0 24 38A12 12 0 1 0 24 14Z"/><path fill="#9e9d24" d="M7 36c0 0 2.652-.174 5 1 2 1 4 2 8 2 3 0 4 0 4 0s-4-6-10-6C9 33 7 36 7 36zM41 36c0 0-2.652-.174-5 1-2 1-4 2-8 2-3 0-4 0-4 0s4-6 10-6C39 33 41 36 41 36z"/><path fill="#afb42b" d="M27,34c-2,3-3,3-3,3s-1,0-3-3s-5-7-10-7c0,0,1.136,1.407,2,4c1,3,3,8,8,8c1,0,5,0,6,0c5,0,7-5,8-8 c0.864-2.593,2-4,2-4C32,27,29,31,27,34z"/></svg>