<svg xmlns="http://www.w3.org/2000/svg"  viewBox="0 0 64 64" width="64px" height="64px"><g data-name="10-rice"><path fill="#d96117" d="M33,1C11.777,1,10,25.776,10,49V61.831A13.119,13.119,0,0,0,11,63a10.577,10.577,0,0,0,1-1.279V49C12,26.744,13.623,3,33,3,51.941,3,59,24.725,59,38.418v6.954c.349.776.685,1.576,1,2.408.36.95.692,1.944,1,2.969V38.418C61,23.951,53.4,1,33,1Z"/><path fill="#18ae88" d="M52.638,55.352C53,59.835,53,63,53,63h5c0-2.116-.1-4.112-.27-6.011A7.969,7.969,0,0,1,52.638,55.352Z"/><path fill="#79e78e" d="M58,57c-.095,0-.177-.009-.27-.011.17,1.9.27,3.9.27,6.011h5a50.881,50.881,0,0,0-.938-7.994A5.564,5.564,0,0,1,58,57Z"/><path fill="#18ae88" d="M34.2,58.837A13.228,13.228,0,0,1,35,63h5a17.384,17.384,0,0,0-1.712-6.017A7.3,7.3,0,0,1,34.2,58.837Z"/><path fill="#79e78e" d="M40,53.227a5.935,5.935,0,0,1-1.716,3.756A17.384,17.384,0,0,1,40,63h3a24.745,24.745,0,0,0-1.37-7.37C41.154,54.858,40.608,54.051,40,53.227Z"/><path fill="#79e78e" d="M51.163,56.971a19.23,19.23,0,0,1-4.478-.659A27.374,27.374,0,0,1,48,63h5A39.57,39.57,0,0,0,51.163,56.971Z"/><path fill="#18ae88" d="M40.637,52.81c.363.946.7,1.89.993,2.82A24.745,24.745,0,0,1,43,63h5a27.374,27.374,0,0,0-1.315-6.688A12.65,12.65,0,0,1,40.637,52.81Z"/><path fill="#fe792c" d="M11,58v5s3.256-3.382,2.979-7.8A2.988,2.988,0,0,1,11,58Z"/><path fill="#ffb844" d="M8.042,55.421A9.343,9.343,0,0,0,11,63V58A2.989,2.989,0,0,1,8.042,55.421Z"/><path fill="#fe792c" d="M13.6,52A9.3,9.3,0,0,0,21,55l-3-3Z"/><path fill="#ffb844" d="M18,52h0l3,3a12.122,12.122,0,0,0-2.018-6.281C18.9,50.585,18.491,52,18,52Z"/><path fill="#fe792c" d="M8.4,52H4L1,55A9.3,9.3,0,0,0,8.4,52Z"/><path fill="#ffb844" d="M2.163,50.185A12.514,12.514,0,0,0,1,55l3-3C3.175,52,2.469,51.252,2.163,50.185Z"/><path fill="#fe792c" d="M4,43,1,46c3.861,0,6.22-1.494,7.674-3.323A19.963,19.963,0,0,1,4,43Z"/><path fill="#ffb844" d="M4,43c-.491,0-.9-1.416-.982-3.281A12.122,12.122,0,0,0,1,46Z"/><path fill="#fe792c" d="M13.32,42.675C14.777,44.506,17.138,46,21,46l-3-3A19.863,19.863,0,0,1,13.32,42.675Z"/><path fill="#ffb844" d="M18.982,39.716C18.9,41.583,18.491,43,18,43h0l3,3a12.38,12.38,0,0,0-1.5-5.471A9.555,9.555,0,0,0,18.982,39.716Z"/><path fill="#fe792c" d="M14.587,34A9.317,9.317,0,0,0,22,37l-3-3Z"/><path fill="#ffb844" d="M19,34h0l3,3a11.98,11.98,0,0,0-2.275-6.624Z"/><path fill="#fe792c" d="M5,34,2,37a9.3,9.3,0,0,0,7.4-3H5Z"/><path fill="#ffb844" d="M3.645,31.29A12.331,12.331,0,0,0,2,37l3-3Z"/><path fill="#fe792c" d="M7,24H7L4,27c4.272,0,6.712-1.827,8.113-3.916C10.82,23.967,8.413,24.707,7,24Z"/><path fill="#ffb844" d="M7,24c-.435,0-.8-1.4-.938-3.343A12.088,12.088,0,0,0,4,27Z"/><path fill="#fe792c" d="M15.892,23.087C17.293,25.175,19.729,27,24,27l-3-3C19.587,24.705,17.187,23.969,15.892,23.087Z"/><path fill="#ffb844" d="M21,24h0l3,3a12.094,12.094,0,0,0-2.06-6.343C21.8,22.6,21.436,24,21,24Z"/><path fill="#fe792c" d="M19.892,15.087C21.293,17.175,23.729,19,28,19l-3-3C23.587,16.7,21.187,15.969,19.892,15.087Z"/><path fill="#ffb844" d="M25,16h0l3,3a12.094,12.094,0,0,0-2.06-6.343C25.8,14.6,25.436,16,25,16Z"/><path fill="#fe792c" d="M26.892,10.087C28.293,12.175,30.729,14,35,14l-3-3C30.587,11.705,28.187,10.969,26.892,10.087Z"/><path fill="#ffb844" d="M32,11h0l3,3a12.094,12.094,0,0,0-2.06-6.343C32.8,9.6,32.436,11,32,11Z"/><path fill="#fe792c" d="M10.125,13.126,6,15.609a9.428,9.428,0,0,0,7.184-.691A4.964,4.964,0,0,1,10.125,13.126Z"/><path fill="#ffb844" d="M9.042,10.415A12.2,12.2,0,0,0,6,15.609l4.125-2.483A4.94,4.94,0,0,1,9.042,10.415Z"/><path fill="#fe792c" d="M14.364,4.32,10,4.848A10.283,10.283,0,0,0,16.048,7,4.346,4.346,0,0,1,14.364,4.32Z"/><path fill="#ffb844" d="M14.433,1.7A12.3,12.3,0,0,0,10,4.848l4.364-.528A6.4,6.4,0,0,1,14.433,1.7Z"/><path fill="#49c263" d="M40,63H35c0-8.03-11.81-21.651-12.92-22.911a.751.751,0,0,0-.07-.08C22.53,40.339,39.02,50.92,40,63Z"/><path fill="#49c263" d="M58,63H53s0-28.9-9.95-35.971a.435.435,0,0,0,.07.04C44.54,28,58,37.419,58,63Z"/><path fill="#aaf66f" d="M43,63H40c-.98-12.08-17.47-22.661-17.99-22.991A37.588,37.588,0,0,1,41.63,55.63,24.745,24.745,0,0,1,43,63Z"/><path fill="#aaf66f" d="M53,63H48c-.98-15.75-17.47-29.561-17.99-29.991C49,42.009,53,63,53,63Z"/><path fill="#aaf66f" d="M60,47.78A47.964,47.964,0,0,1,63,63H58c0-25.581-13.46-35-14.88-35.931A41.009,41.009,0,0,1,60,47.78Z"/><path fill="#fea740" d="M11,49c6.75,7,0,14,0,14Z"/><path fill="#ffdf64" d="M11,63c-6.75-7,0-14,0-14Z"/><path fill="#fea740" d="M11.2,45.21,21,55c-8.72,0-9.84-7.61-9.98-9.55v-.24Z"/><path fill="#ffdf64" d="M11.03,45C21,45.02,21,55,21,55l-9.8-9.79h-.18A1.477,1.477,0,0,1,11.03,45Z"/><path fill="#fea740" d="M10.79,45.21l.2.01C10.92,46.69,10.12,55,1,55Z"/><path fill="#ffdf64" d="M11,45s0,.08-.01.22l-.2-.01L1,55S1,45,11,45Z"/><path fill="#fea740" d="M10.79,36.209l.2.01C10.92,37.689,10.12,46,1,46Z"/><path fill="#ffdf64" d="M11,36s0,.08-.01.22l-.2-.01L1,46S1,36,11,36Z"/><path fill="#fea740" d="M11.29,36.3,21,46c-7.22,0-9.23-5.211-9.79-8.111C11.23,37.359,11.26,36.829,11.29,36.3Z"/><path fill="#ffdf64" d="M11.31,36.009c4.49.09,6.9,2.24,8.19,4.52A12.38,12.38,0,0,1,21,46l-9.71-9.7A2.825,2.825,0,0,1,11.31,36.009Z"/><path fill="#fea740" d="M12.2,27.209,22,37c-8.36,0-9.73-6.99-9.95-9.28.02-.17.04-.35.07-.52Z"/><path fill="#ffdf64" d="M22,37l-9.8-9.79-.08-.01a1.38,1.38,0,0,1,.03-.2C22,27.1,22,37,22,37Z"/><path fill="#fea740" d="M2,37l9.79-9.79.2.01C11.92,28.689,11.12,37,2,37Z"/><path fill="#ffdf64" d="M2,37S2,27,12,27c0,0,0,.08-.01.22l-.2-.01Z"/><path fill="#fea740" d="M4,27l9.79-9.79.2.01a12.036,12.036,0,0,1-.2,1.66.075.075,0,0,0-.01.05c-.16.53-.3,1.06-.43,1.6a.235.235,0,0,1-.02.08C12.35,23.469,9.94,27,4,27Z"/><path fill="#ffdf64" d="M13.79,17.209,4,27S4,17,14,17c0,0,0,.08-.01.22Z"/><path fill="#fea740" d="M14.27,17.279,24,27c-8.13,0-9.65-6.6-9.93-9.08v-.01A5.1,5.1,0,0,1,14.27,17.279Z"/><path fill="#ffdf64" d="M14.35,17.009C24,17.229,24,27,24,27l-9.73-9.72A.924.924,0,0,1,14.35,17.009Z"/><path fill="#fea740" d="M18.2,9.209,28,19c-8.75,0-9.84-7.66-9.98-9.57v-.01a1.526,1.526,0,0,1,.16-.22Z"/><path fill="#ffdf64" d="M28,19l-9.8-9.79-.02-.01a.771.771,0,0,1,.14-.19C28,9.209,28,19,28,19Z"/><path fill="#fea740" d="M17.95,8.578C17.55,9.909,14.8,17.819,6,15.609L17.75,8.538Z"/><path fill="#ffdf64" d="M6,15.609S8.4,5.978,18,8.388c0,0-.02.07-.05.19l-.2-.04Z"/><path fill="#fea740" d="M25.2,4.208,35,14C25,14,25,4,25,4a1.477,1.477,0,0,1,.21.01Z"/><path fill="#ffdf64" d="M25.21,4.008C35,4.138,35,14,35,14L25.2,4.208Z"/><path fill="#fea740" d="M10,4.848l13.7-1.66.15.13C22.88,4.378,17.18,10.019,10,4.848Z"/><path fill="#ffdf64" d="M24,3.148s-.05.06-.15.17l-.15-.13L10,4.848S16.1-2.532,24,3.148Z"/><path fill="#49c263" d="M30.01,33.009c.31.46,8.36,12.33,11.62,22.621A24.745,24.745,0,0,1,43,63h5C47.02,47.25,30.53,33.439,30.01,33.009Z"/></g></svg>