<svg fill="#000000" xmlns="http://www.w3.org/2000/svg"  viewBox="0 0 512 512" width="50px" height="50px"><path d="M 256.18555 34.439453 L 249.98633 41.181641 C 249.95633 41.214641 249.92553 41.24725 249.89453 41.28125 C 210.02453 82.98125 209.73891 151.42067 249.00391 194.51367 L 249 361 L 263 361 L 263 194.91992 C 302.176 152.33792 301.98783 83.579703 262.42383 41.220703 L 256.18555 34.439453 z M 127.49414 178.39453 L 127.87695 187.54688 C 127.87695 187.59188 127.87791 187.63664 127.87891 187.68164 C 129.18591 245.82664 178.13895 294.74452 237.00195 296.72852 L 246.21094 297.11133 L 245.82812 287.95703 L 245.82812 287.90234 C 243.86712 229.71534 194.91317 180.76234 136.70117 178.77734 L 127.49414 178.39453 z M 384.50391 178.39453 L 375.34961 178.77539 C 317.08461 180.76239 268.13092 229.71534 266.16992 287.90234 L 265.78906 297.11133 L 274.94141 296.72852 C 333.86041 294.74352 382.81409 245.82964 384.12109 187.68164 L 384.12109 187.54688 L 384.50391 178.39453 z M 252.74805 371.19336 A 79.546 79.546 0 0 0 190.87891 404.98633 A 7 7 0 0 1 182.04492 407.2168 A 72.781 72.781 0 0 0 149.375 399.51562 C 130.497 399.51562 112.14708 409.19977 97.705078 426.38477 A 92.21 92.21 0 0 0 75.994141 478 L 436.00586 478 A 92.2 92.2 0 0 0 414.30078 426.38867 C 399.85378 409.20067 381.5 399.63086 362.625 399.63086 A 72.734 72.734 0 0 0 329.95508 407.25586 A 7.011 7.011 0 0 1 321.12109 404.99414 A 79.546 79.546 0 0 0 252.74805 371.19336 z"/></svg>