<svg xmlns="http://www.w3.org/2000/svg"  viewBox="0 0 48 48" width="64px" height="64px"><path fill="#cddc39" d="M15,12v30.984c0,0.66,0.317,1.289,0.869,1.653C17.075,45.432,18.49,46,20,46 s2.925-0.568,4.131-1.363C24.683,44.274,25,43.645,25,42.984V8L15,12z"/><ellipse cx="20" cy="9.55" fill="#fff9c4" rx="5.939" ry="3.394" transform="rotate(-63.876 20.001 9.55)"/><path fill="#ffb300" d="M18.309,16.092c-0.479,0-0.938-0.103-1.364-0.312c-2.212-1.085-2.603-4.671-0.889-8.166 c0.773-1.578,1.867-2.899,3.078-3.72c1.378-0.935,2.772-1.141,3.922-0.576c2.212,1.085,2.603,4.671,0.889,8.166 c-0.773,1.578-1.867,2.899-3.078,3.72C19.998,15.793,19.124,16.092,18.309,16.092z M21.692,5.011c-0.414,0-0.913,0.185-1.437,0.539 c-0.914,0.62-1.791,1.693-2.405,2.946c-1.244,2.538-1.04,4.991-0.025,5.489c0.472,0.233,1.171,0.072,1.919-0.435 c0.914-0.62,1.791-1.693,2.405-2.946c1.244-2.538,1.04-4.991,0.025-5.489C22.033,5.045,21.87,5.011,21.692,5.011z"/><path fill="#689f38" d="M25,34c4.456-3.565,15-10,12-23c-4,10-10,9-12,17"/><path fill="#827717" d="M20,34c-2.09,0-3.93-1.07-5-2.69V34c1.37,1.11,3.11,2,5,2s3.63-0.89,5-2v-2.69 C23.93,32.93,22.09,34,20,34z"/></svg>