<svg xmlns="http://www.w3.org/2000/svg"  viewBox="0 0 512 512" width="64px" height="64px"><path fill="#c66a26" d="M73.371,162.008a4.5,4.5,0,0,0,4.5-4.5V112.68a4.5,4.5,0,0,0-9,0v44.828A4.5,4.5,0,0,0,73.371,162.008Z"/><path fill="#c66a26" d="M12.136,231.146A4.5,4.5,0,1,0,4.259,235.5a220.571,220.571,0,0,0,16.55,25.941,4.5,4.5,0,0,0,7.124-5.5A215.767,215.767,0,0,1,12.136,231.146Z"/><path fill="#c66a26" d="M20.6,212.7a4.5,4.5,0,0,0,7.124-5.5,215.544,215.544,0,0,1-15.8-24.791,4.5,4.5,0,0,0-7.877,4.352A220.24,220.24,0,0,0,20.6,212.7Z"/><path fill="#c66a26" d="M12.136,279.105a4.5,4.5,0,0,0-7.877,4.354,245.768,245.768,0,0,0,16.355,26.007,4.5,4.5,0,0,0,7.21-5.388A241.671,241.671,0,0,1,12.136,279.105Z"/><path fill="#c66a26" d="M11.926,328.355a4.5,4.5,0,0,0-7.877,4.354A220.462,220.462,0,0,0,20.6,358.647a4.5,4.5,0,0,0,7.124-5.5A215.38,215.38,0,0,1,11.926,328.355Z"/><path fill="#c66a26" d="M11.926,376.316a4.5,4.5,0,0,0-7.877,4.354A245.682,245.682,0,0,0,20.4,406.676a4.5,4.5,0,1,0,7.209-5.389A240.236,240.236,0,0,1,11.926,376.316Z"/><path fill="#c66a26" d="M120.892,262.248a4.5,4.5,0,0,0,6.31-.81,220.71,220.71,0,0,0,16.55-25.94,4.5,4.5,0,0,0-7.877-4.353,216.226,216.226,0,0,1-15.8,24.792A4.5,4.5,0,0,0,120.892,262.248Z"/><path fill="#c66a26" d="M121.1,213.507a4.5,4.5,0,0,0,6.31-.811,220.688,220.688,0,0,0,16.55-25.939,4.5,4.5,0,0,0-7.877-4.354,216,216,0,0,1-15.8,24.792A4.5,4.5,0,0,0,121.1,213.507Z"/><path fill="#c66a26" d="M121.1,310.376a4.5,4.5,0,0,0,6.3-.91,246.055,246.055,0,0,0,16.356-26.007,4.5,4.5,0,0,0-7.877-4.354,241.767,241.767,0,0,1-15.689,24.973A4.5,4.5,0,0,0,121.1,310.376Z"/><path fill="#c66a26" d="M142.2,326.594a4.5,4.5,0,0,0-6.115,1.761,215.872,215.872,0,0,1-15.8,24.791,4.5,4.5,0,0,0,7.124,5.5,220.877,220.877,0,0,0,16.55-25.938A4.5,4.5,0,0,0,142.2,326.594Z"/><path fill="#c66a26" d="M142.2,374.555a4.5,4.5,0,0,0-6.115,1.761A241.674,241.674,0,0,1,120.4,401.288a4.5,4.5,0,0,0,7.209,5.388,245.545,245.545,0,0,0,16.357-26.006A4.5,4.5,0,0,0,142.2,374.555Z"/><path fill="#e8a23d" d="M125.766,407.621a4.768,4.768,0,0,0-6.107-4.494,105.039,105.039,0,0,0-19.979,8.347l0-.015a52.06,52.06,0,0,0,16.132-13.89c7.778-10.027,10.131-28.3,9.957-37.909a4.768,4.768,0,0,0-6.107-4.494,149.824,149.824,0,0,0-18.954,6.774c5.9-3.111,12.59-7.673,16.774-12.969,7.867-9.958,8.251-28.953,8.077-38.561a4.768,4.768,0,0,0-6.107-4.494,112.016,112.016,0,0,0-17.229,6.635A51.781,51.781,0,0,0,115.6,300.358c7.778-10.027,10.131-28.3,9.957-37.909a4.767,4.767,0,0,0-6.107-4.493,141.5,141.5,0,0,0-21.43,7.928,52.461,52.461,0,0,0,17.79-14.267c7.778-10.027,10.131-28.3,9.957-37.909a4.768,4.768,0,0,0-6.107-4.493c-7.065,2.061-20.578,6.32-29.9,12.791L88,223.375c4.789-6.416,7.076-16.26,7.076-23.37,0-12.69-12.1-32.98-17.939-40.615a4.768,4.768,0,0,0-7.582,0c-5.835,7.635-16.35,27.925-16.35,40.615,0,11.425,4.542,18.818,8.374,24.584L58.2,222.006c-9.323-6.471-22.836-10.73-29.9-12.791a4.767,4.767,0,0,0-6.107,4.493c-.174,9.608,2.179,27.882,9.957,37.909a52.479,52.479,0,0,0,17.791,14.268,141.526,141.526,0,0,0-21.431-7.929,4.767,4.767,0,0,0-6.107,4.493c-.174,9.608,2.179,27.882,9.957,37.909a51.781,51.781,0,0,0,13.379,12.193,112.016,112.016,0,0,0-17.229-6.635A4.768,4.768,0,0,0,22.4,310.41c-.174,9.608.21,28.6,8.077,38.561,4.184,5.3,10.87,9.858,16.774,12.969A149.879,149.879,0,0,0,28.3,355.166a4.768,4.768,0,0,0-6.107,4.494c-.174,9.608,2.179,27.882,9.957,37.909a52.06,52.06,0,0,0,16.132,13.89l.016.02a105.062,105.062,0,0,0-20-8.352,4.768,4.768,0,0,0-6.107,4.494c-.174,9.608.21,28.6,8.077,38.56,15.4,19.489,43.491,19.489,43.491,19.489H74.2s28.1,0,43.491-19.489C125.556,436.224,125.94,417.229,125.766,407.621Z"/><path fill="#c66a26" d="M101.314,307.991c-8.995,4.27-15.65,9.084-19.782,14.31a41.64,41.64,0,0,0-3.04,4.437v-6.025a113.135,113.135,0,0,0,.021-11.454c.431-9.12,2.089-21.792,7.609-29.294,2.7-3.665,8.107-7.422,15.642-10.866a4.5,4.5,0,0,0-3.741-8.186c-9.052,4.138-15.5,8.752-19.15,13.717-.132.179-.253.369-.381.552V255.4c0-.016.006-.03.007-.046.536-10.181,2.879-17.4,7.833-24.129a22.783,22.783,0,0,1,4.393-4.342,4.5,4.5,0,0,0-5.522-7.108,31.69,31.69,0,0,0-6.119,6.115,46.937,46.937,0,0,0-5.079,8.673,46.944,46.944,0,0,0-5.077-8.671,29.371,29.371,0,0,0-4.394-4.7,4.5,4.5,0,0,0-5.91,6.787,20.458,20.458,0,0,1,3.054,3.242c4.907,6.669,7.25,13.816,7.814,23.844v20.078c-.12-.17-.233-.349-.356-.516-3.391-4.608-9.186-8.918-17.225-12.812a4.5,4.5,0,1,0-3.924,8.1c6.709,3.249,11.386,6.629,13.9,10.046,5.5,7.475,7.165,20.078,7.6,29.189v.22c-.237,5.331-.076,9.425,0,10.88v6.441a41.239,41.239,0,0,0-3.013-4.393c-3.967-5.018-10.276-9.664-18.751-13.813a4.5,4.5,0,1,0-3.957,8.084c7.155,3.5,12.566,7.413,15.649,11.311,8.034,10.159,9.758,25.868,10.072,34.364v.071c-.087,2.745-.038,4.774,0,5.761v4.581c-.188-.274-.37-.554-.565-.819-3.744-5.088-10.414-9.806-19.826-14.023a4.5,4.5,0,1,0-3.68,8.213c7.863,3.524,13.484,7.377,16.257,11.144,5.8,7.885,7.422,21.466,7.814,30.652v.249c-.185,4.772-.056,8.316,0,9.493v6.238a38.546,38.546,0,0,0-3.377-4.48c-4.151-4.712-10.335-9.175-18.379-13.264a4.5,4.5,0,0,0-4.078,8.023c6.926,3.52,12.357,7.391,15.7,11.19,7.378,8.374,9.562,21.1,10.13,29.939v.053a85.153,85.153,0,0,0,0,10.224V503.97a4.5,4.5,0,0,0,9,0V466.1c0-.017.008-.032.009-.048a80.959,80.959,0,0,0,.032-10.822c.56-8.843,2.733-21.578,10.114-29.957,3.089-3.5,7.995-7.1,14.188-10.4a4.5,4.5,0,0,0-4.232-7.943c-7.238,3.855-12.859,8.025-16.708,12.394a38.6,38.6,0,0,0-3.4,4.519V418c0-.011,0-.02,0-.031.026-.441.239-4.408.015-10.019.384-9.189,1.992-22.855,7.82-30.774,2.769-3.761,8.375-7.608,16.216-11.125a4.5,4.5,0,1,0-3.684-8.211c-9.386,4.211-16.042,8.922-19.78,14-.2.278-.4.57-.592.857v-4.037c.025-.451.14-2.818.026-6.385.311-8.49,2.031-24.222,10.074-34.393,3.221-4.074,8.955-8.141,16.582-11.761a4.5,4.5,0,1,0-3.86-8.131Z"/><path fill="#c66a26" d="M437.359,162.008a4.5,4.5,0,0,1-4.5-4.5V112.68a4.5,4.5,0,0,1,9,0v44.828A4.5,4.5,0,0,1,437.359,162.008Z"/><path fill="#c66a26" d="M388.36,263.187a4.5,4.5,0,0,1-3.564-1.749,220.865,220.865,0,0,1-16.55-25.94,4.5,4.5,0,0,1,7.877-4.353,215.09,215.09,0,0,0,15.8,24.791,4.5,4.5,0,0,1-3.559,7.251Z"/><path fill="#c66a26" d="M388.15,214.445a4.493,4.493,0,0,1-3.564-1.749,220.688,220.688,0,0,1-16.55-25.939,4.5,4.5,0,0,1,7.877-4.354,214.979,214.979,0,0,0,15.8,24.791,4.5,4.5,0,0,1-3.559,7.251Z"/><path fill="#c66a26" d="M388.211,311.271a4.492,4.492,0,0,1-3.608-1.805,245.76,245.76,0,0,1-16.357-26.007,4.5,4.5,0,0,1,7.877-4.354,240.518,240.518,0,0,0,15.689,24.972,4.5,4.5,0,0,1-3.6,7.194Z"/><path fill="#c66a26" d="M388.149,360.4a4.491,4.491,0,0,1-3.563-1.749,220.877,220.877,0,0,1-16.55-25.938,4.5,4.5,0,0,1,7.877-4.354,215.872,215.872,0,0,0,15.8,24.791,4.5,4.5,0,0,1-3.561,7.25Z"/><path fill="#c66a26" d="M388,408.481a4.492,4.492,0,0,1-3.608-1.805,245.545,245.545,0,0,1-16.357-26.006,4.5,4.5,0,0,1,7.877-4.354A240.221,240.221,0,0,0,391.6,401.287a4.5,4.5,0,0,1-3.6,7.194Z"/><path fill="#c66a26" d="M487.627,263.187a4.5,4.5,0,0,1-3.561-7.25,215.854,215.854,0,0,0,15.8-24.791,4.5,4.5,0,1,1,7.877,4.351,220.6,220.6,0,0,1-16.549,25.941A4.491,4.491,0,0,1,487.627,263.187Z"/><path fill="#c66a26" d="M487.837,214.445a4.5,4.5,0,0,1-3.561-7.25,215.631,215.631,0,0,0,15.8-24.791,4.5,4.5,0,0,1,7.877,4.352A220.425,220.425,0,0,1,491.4,212.7,4.488,4.488,0,0,1,487.837,214.445Z"/><path fill="#c66a26" d="M487.776,311.271a4.5,4.5,0,0,1-3.6-7.193,241.671,241.671,0,0,0,15.688-24.973,4.5,4.5,0,0,1,7.877,4.354,245.768,245.768,0,0,1-16.355,26.007A4.5,4.5,0,0,1,487.776,311.271Z"/><path fill="#c66a26" d="M487.837,360.4a4.5,4.5,0,0,1-3.561-7.25,215.631,215.631,0,0,0,15.8-24.791,4.5,4.5,0,0,1,7.877,4.354A220.492,220.492,0,0,1,491.4,358.647,4.488,4.488,0,0,1,487.837,360.4Z"/><path fill="#c66a26" d="M487.986,408.481a4.5,4.5,0,0,1-3.6-7.193,241.9,241.9,0,0,0,15.687-24.972,4.5,4.5,0,0,1,7.877,4.354,245.682,245.682,0,0,1-16.355,26.006A4.5,4.5,0,0,1,487.986,408.481Z"/><path fill="#e8a23d" d="M489.754,407.621a4.768,4.768,0,0,0-6.107-4.494,105.039,105.039,0,0,0-19.979,8.347l0-.015a52.06,52.06,0,0,0,16.132-13.89c7.778-10.027,10.131-28.3,9.957-37.909a4.768,4.768,0,0,0-6.107-4.494,149.824,149.824,0,0,0-18.954,6.774c5.9-3.111,12.59-7.673,16.774-12.969,7.867-9.958,8.251-28.953,8.077-38.561a4.768,4.768,0,0,0-6.107-4.494,112.016,112.016,0,0,0-17.229,6.635,51.781,51.781,0,0,0,13.379-12.193c7.778-10.027,10.131-28.3,9.957-37.909a4.767,4.767,0,0,0-6.107-4.493,141.5,141.5,0,0,0-21.43,7.928,52.47,52.47,0,0,0,17.79-14.267c7.778-10.027,10.131-28.3,9.957-37.909a4.768,4.768,0,0,0-6.107-4.493c-7.065,2.061-20.578,6.32-29.9,12.791l-1.758,1.369c4.789-6.416,7.076-16.26,7.076-23.37,0-12.69-12.1-32.98-17.939-40.615a4.768,4.768,0,0,0-7.582,0c-5.835,7.635-16.35,27.925-16.35,40.615,0,11.425,4.542,18.818,8.374,24.584l-3.378-2.583c-9.323-6.471-22.836-10.73-29.9-12.791a4.767,4.767,0,0,0-6.107,4.493c-.174,9.608,2.179,27.882,9.957,37.909a52.479,52.479,0,0,0,17.791,14.268,141.526,141.526,0,0,0-21.431-7.929,4.767,4.767,0,0,0-6.107,4.493c-.174,9.608,2.179,27.882,9.957,37.909a51.781,51.781,0,0,0,13.379,12.193,112.016,112.016,0,0,0-17.229-6.635,4.768,4.768,0,0,0-6.107,4.494c-.174,9.608.21,28.6,8.077,38.561,4.184,5.3,10.87,9.858,16.774,12.969a149.879,149.879,0,0,0-18.954-6.774,4.768,4.768,0,0,0-6.107,4.494c-.174,9.608,2.179,27.882,9.957,37.909a52.06,52.06,0,0,0,16.132,13.89l.016.02a105.062,105.062,0,0,0-20-8.352,4.768,4.768,0,0,0-6.107,4.494c-.174,9.608.21,28.6,8.077,38.56,15.4,19.489,43.491,19.489,43.491,19.489h.437s28.1,0,43.491-19.489C489.544,436.224,489.928,417.229,489.754,407.621Z"/><path fill="#c66a26" d="M469.162,316.122a4.5,4.5,0,0,0-3.859-8.131c-9,4.271-15.653,9.085-19.783,14.31a41.526,41.526,0,0,0-3.04,4.436V320.7a112.729,112.729,0,0,0,.02-11.433c.431-9.12,2.088-21.8,7.61-29.3,2.7-3.663,8.1-7.421,15.642-10.865a4.5,4.5,0,0,0-3.74-8.186c-9.055,4.138-15.5,8.753-19.15,13.717-.132.179-.253.37-.382.553V255.4c0-.016.007-.03.007-.045.535-10.181,2.878-17.4,7.834-24.13a22.743,22.743,0,0,1,4.392-4.341,4.5,4.5,0,0,0-5.522-7.108,31.689,31.689,0,0,0-6.119,6.115,46.937,46.937,0,0,0-5.079,8.673,47.02,47.02,0,0,0-5.078-8.673,29.469,29.469,0,0,0-4.391-4.694,4.5,4.5,0,0,0-5.914,6.785,20.474,20.474,0,0,1,3.056,3.243c4.907,6.668,7.249,13.816,7.814,23.845v20.077c-.12-.171-.233-.35-.356-.517-3.392-4.608-9.187-8.918-17.225-12.811a4.5,4.5,0,0,0-3.923,8.1c6.708,3.249,11.384,6.629,13.9,10.046,5.5,7.48,7.167,20.094,7.605,29.208v.2c-.237,5.335-.076,9.431,0,10.885V326.7a41.5,41.5,0,0,0-3.013-4.394c-3.968-5.018-10.277-9.665-18.751-13.813a4.5,4.5,0,1,0-3.957,8.084c7.154,3.5,12.565,7.412,15.648,11.311,8.041,10.168,9.762,25.894,10.073,34.385v.041c-.087,2.75-.038,4.783,0,5.77v4.581c-.187-.274-.37-.554-.565-.819-3.744-5.088-10.414-9.806-19.826-14.023a4.5,4.5,0,0,0-3.68,8.213c7.863,3.524,13.485,7.377,16.257,11.144,5.8,7.886,7.422,21.471,7.814,30.658v.238c-.185,4.776-.056,8.322,0,9.5v6.237a38.65,38.65,0,0,0-3.376-4.48c-4.152-4.713-10.335-9.175-18.38-13.264a4.5,4.5,0,1,0-4.078,8.023c6.925,3.52,12.356,7.391,15.7,11.19,7.379,8.376,9.562,21.1,10.13,29.945v.04a85.045,85.045,0,0,0,0,10.231V503.97a4.5,4.5,0,0,0,9,0V466.1c0-.017.008-.032.009-.048a80.756,80.756,0,0,0,.032-10.822c.56-8.843,2.733-21.577,10.114-29.955,3.09-3.506,8-7.1,14.188-10.4a4.5,4.5,0,1,0-4.232-7.943c-7.237,3.855-12.859,8.025-16.709,12.394a38.65,38.65,0,0,0-3.4,4.517V418c0-.011,0-.02,0-.031.026-.445.242-4.469.01-10.147.455-9.826,2.317-23.159,7.826-30.646,2.767-3.76,8.373-7.607,16.215-11.125a4.5,4.5,0,1,0-3.683-8.211c-9.388,4.211-16.043,8.922-19.781,14-.2.278-.395.57-.592.857v-4.055c.028-.493.141-2.886.022-6.476.313-8.5,2.042-24.124,10.077-34.284C455.8,323.81,461.534,319.742,469.162,316.122Z"/><path fill="#c66a26" d="M255.2,69.281a4.5,4.5,0,0,1-4.5-4.5V7.955a4.5,4.5,0,1,1,9,0V64.781A4.5,4.5,0,0,1,255.2,69.281Z"/><path fill="#c66a26" d="M193.089,197.539a4.492,4.492,0,0,1-3.565-1.749,278.652,278.652,0,0,1-20.878-32.727,4.5,4.5,0,1,1,7.877-4.354,275.187,275.187,0,0,0,20.125,31.58,4.5,4.5,0,0,1-3.559,7.25Z"/><path fill="#c66a26" d="M192.822,135.753A4.494,4.494,0,0,1,189.258,134a278.413,278.413,0,0,1-20.878-32.728,4.5,4.5,0,0,1,7.877-4.353,274.97,274.97,0,0,0,20.125,31.58,4.5,4.5,0,0,1-3.56,7.25Z"/><path fill="#c66a26" d="M192.9,258.493a4.5,4.5,0,0,1-3.607-1.805,310.106,310.106,0,0,1-20.644-32.829,4.5,4.5,0,0,1,7.877-4.353A307.557,307.557,0,0,0,196.5,251.3a4.5,4.5,0,0,1-3.6,7.193Z"/><path fill="#c66a26" d="M192.822,320.767a4.494,4.494,0,0,1-3.564-1.749A278.2,278.2,0,0,1,168.38,286.29a4.5,4.5,0,0,1,7.877-4.353,274.945,274.945,0,0,0,20.124,31.58,4.5,4.5,0,0,1-3.559,7.25Z"/><path fill="#c66a26" d="M192.632,381.722a4.493,4.493,0,0,1-3.608-1.806,310.041,310.041,0,0,1-20.644-32.829,4.5,4.5,0,0,1,7.877-4.354,307.444,307.444,0,0,0,19.976,31.8,4.5,4.5,0,0,1-3.6,7.194Z"/><path fill="#c66a26" d="M318.923,197.539a4.5,4.5,0,0,1-3.56-7.25,274.858,274.858,0,0,0,20.125-31.58,4.5,4.5,0,1,1,7.877,4.354,278.342,278.342,0,0,1-20.878,32.727A4.489,4.489,0,0,1,318.923,197.539Z"/><path fill="#c66a26" d="M319.188,135.753a4.5,4.5,0,0,1-3.559-7.25,274.97,274.97,0,0,0,20.125-31.58,4.5,4.5,0,1,1,7.877,4.353A278.723,278.723,0,0,1,322.753,134,4.5,4.5,0,0,1,319.188,135.753Z"/><path fill="#c66a26" d="M319.113,258.493a4.5,4.5,0,0,1-3.6-7.193,307.488,307.488,0,0,0,19.976-31.794,4.5,4.5,0,1,1,7.877,4.353,310.3,310.3,0,0,1-20.644,32.829A4.5,4.5,0,0,1,319.113,258.493Z"/><path fill="#c66a26" d="M319.188,320.767a4.5,4.5,0,0,1-3.558-7.25,274.945,274.945,0,0,0,20.124-31.58,4.5,4.5,0,0,1,7.877,4.353,278.512,278.512,0,0,1-20.878,32.728A4.5,4.5,0,0,1,319.188,320.767Z"/><path fill="#c66a26" d="M319.38,381.722a4.5,4.5,0,0,1-3.6-7.194,307.513,307.513,0,0,0,19.976-31.8,4.5,4.5,0,0,1,7.877,4.354,309.847,309.847,0,0,1-20.644,32.829A4.492,4.492,0,0,1,319.38,381.722Z"/><path fill="#e8a23d" d="M321.619,381.834a6.044,6.044,0,0,0-7.741-5.7,133.158,133.158,0,0,0-25.326,10.582l0-.019A66.01,66.01,0,0,0,309,369.091c9.86-12.71,12.843-35.874,12.622-48.054a6.043,6.043,0,0,0-7.741-5.7,190.033,190.033,0,0,0-24.027,8.586c7.485-3.943,15.96-9.727,21.264-16.44,9.972-12.623,10.459-36.7,10.238-48.881a6.044,6.044,0,0,0-7.741-5.7,142.086,142.086,0,0,0-21.841,8.41,65.619,65.619,0,0,0,16.96-15.455c9.86-12.711,12.843-35.875,12.622-48.055a6.043,6.043,0,0,0-7.741-5.7,179.376,179.376,0,0,0-27.166,10.05A66.506,66.506,0,0,0,309,184.077c9.86-12.71,12.843-35.875,12.622-48.054a6.043,6.043,0,0,0-7.741-5.7c-8.955,2.612-26.085,8.011-37.9,16.214l-2.229,1.736c6.07-8.133,8.97-20.611,8.97-29.625,0-16.087-15.344-41.807-22.741-51.485a6.043,6.043,0,0,0-9.611,0c-7.4,9.678-20.725,35.4-20.725,51.485,0,14.483,5.757,23.855,10.614,31.164l-4.282-3.275c-11.817-8.2-28.948-13.6-37.9-16.214a6.043,6.043,0,0,0-7.741,5.7c-.221,12.179,2.762,35.344,12.622,48.054A66.5,66.5,0,0,0,225.5,202.164a179.363,179.363,0,0,0-27.167-10.051,6.043,6.043,0,0,0-7.741,5.7c-.221,12.18,2.762,35.344,12.622,48.055a65.619,65.619,0,0,0,16.96,15.455,142.086,142.086,0,0,0-21.841-8.41,6.044,6.044,0,0,0-7.741,5.7c-.221,12.179.266,36.258,10.238,48.881,5.3,6.713,13.779,12.5,21.264,16.44a190.033,190.033,0,0,0-24.027-8.586,6.043,6.043,0,0,0-7.741,5.7c-.221,12.18,2.762,35.344,12.622,48.054A66,66,0,0,0,223.4,386.7l.02.025a133.286,133.286,0,0,0-25.35-10.588,6.044,6.044,0,0,0-7.741,5.7c-.221,12.179.266,36.258,10.238,48.881,19.517,24.7,55.131,24.7,55.131,24.7h.554s35.614,0,55.131-24.7C321.353,418.092,321.84,394.013,321.619,381.834Z"/><path fill="#c66a26" d="M297.136,258.764a4.5,4.5,0,0,0-6-2.136c-11.235,5.333-19.529,11.32-24.65,17.8a54.63,54.63,0,0,0-6,9.585V271.623a142.714,142.714,0,0,0,.026-14.547c.557-11.715,2.705-28.027,9.881-37.778,3.591-4.879,10.42-9.642,20.3-14.155a4.5,4.5,0,1,0-3.74-8.186c-11.287,5.157-19.3,10.879-23.806,17.007a39.611,39.611,0,0,0-2.658,4.173V188.821c0-.024.01-.047.011-.071.684-12.981,3.817-22.616,10.163-31.238a29.982,29.982,0,0,1,5.8-5.74,4.5,4.5,0,1,0-5.522-7.107,38.928,38.928,0,0,0-7.525,7.513,57.683,57.683,0,0,0-7.408,13.4,57.726,57.726,0,0,0-7.408-13.4,36.194,36.194,0,0,0-5.388-5.754,4.5,4.5,0,1,0-5.912,6.785,27.281,27.281,0,0,1,4.052,4.3c6.288,8.545,9.418,18.089,10.139,30.9v29.67a39.15,39.15,0,0,0-2.626-4.113c-4.181-5.683-11.379-11.023-21.391-15.871a4.5,4.5,0,1,0-3.922,8.1c8.68,4.2,14.759,8.614,18.065,13.106,7.161,9.732,9.313,26.053,9.874,37.775v.144c-.305,6.813-.1,12.036,0,13.833v12.895a54.6,54.6,0,0,0-5.968-9.519c-4.917-6.218-12.775-12-23.356-17.174a4.5,4.5,0,0,0-3.955,8.084c9.23,4.517,16.232,9.59,20.251,14.672,10.405,13.159,12.627,33.409,13.028,44.322-.114,3.53-.049,6.131,0,7.363v10.1a40.266,40.266,0,0,0-2.891-4.6c-4.623-6.28-12.918-12.13-24.655-17.388a4.5,4.5,0,1,0-3.679,8.213c10.3,4.615,17.395,9.5,21.085,14.51,7.547,10.257,9.638,27.817,10.14,39.621v.2c-.238,6.085-.071,10.6,0,12.062v12.318a50.025,50.025,0,0,0-6.387-9.256c-5.163-5.859-12.88-11.422-22.942-16.537a4.5,4.5,0,1,0-4.078,8.023c8.915,4.531,15.923,9.533,20.266,14.463,9.592,10.888,12.412,27.362,13.14,38.757a106.288,106.288,0,0,0,0,12.982V503.97a4.5,4.5,0,1,0,9,0V455.945c0-.025,0-.051,0-.076s.01-.044.012-.067a101.939,101.939,0,0,0,.039-13.632c.719-11.4,3.529-27.865,13.12-38.751,4.008-4.55,10.344-9.2,18.321-13.451a4.5,4.5,0,1,0-4.232-7.944c-9.048,4.821-16.06,10.017-20.843,15.446a50.012,50.012,0,0,0-6.421,9.32V394.936c0-.019.008-.037.009-.056.033-.557.3-5.6.017-12.706.5-11.8,2.581-29.365,10.147-39.649,3.683-5,10.759-9.878,21.033-14.487a4.5,4.5,0,1,0-3.683-8.211c-11.708,5.252-19.985,11.1-24.6,17.364a40.4,40.4,0,0,0-2.925,4.662V332.41c.029-.5.184-3.56.031-8.188.4-10.928,2.632-31.065,13.03-44.214,4.2-5.308,11.615-10.581,21.45-15.249A4.5,4.5,0,0,0,297.136,258.764Z"/></svg>